<mxfile host="app.diagrams.net" agent="Mozilla/5.0 (Windows NT 10.0; Win64; x64) AppleWebKit/537.36 (KHTML, like Gecko) Chrome/134.0.0.0 Safari/537.36" version="26.1.0">
  <diagram name="Página-1" id="Sk_OEtbb3EBe4qhzpYaF">
    <mxGraphModel dx="1323" dy="1912" grid="1" gridSize="10" guides="1" tooltips="1" connect="1" arrows="1" fold="1" page="1" pageScale="1" pageWidth="827" pageHeight="1169" math="0" shadow="0">
      <root>
        <mxCell id="0" />
        <mxCell id="1" parent="0" />
        <mxCell id="2SUrX7hE4mHxBvQzwb3O-1" value="Usuario" style="whiteSpace=wrap;html=1;align=center;" vertex="1" parent="1">
          <mxGeometry x="1136" y="80" width="100" height="40" as="geometry" />
        </mxCell>
        <mxCell id="2SUrX7hE4mHxBvQzwb3O-2" value="Cliente" style="whiteSpace=wrap;html=1;align=center;" vertex="1" parent="1">
          <mxGeometry x="469" y="440" width="100" height="40" as="geometry" />
        </mxCell>
        <mxCell id="2SUrX7hE4mHxBvQzwb3O-3" value="Venta" style="whiteSpace=wrap;html=1;align=center;" vertex="1" parent="1">
          <mxGeometry x="1136" y="440" width="100" height="40" as="geometry" />
        </mxCell>
        <mxCell id="2SUrX7hE4mHxBvQzwb3O-4" value="Factura" style="whiteSpace=wrap;html=1;align=center;" vertex="1" parent="1">
          <mxGeometry x="1879" y="440" width="100" height="40" as="geometry" />
        </mxCell>
        <mxCell id="2SUrX7hE4mHxBvQzwb3O-5" value="Producto" style="whiteSpace=wrap;html=1;align=center;" vertex="1" parent="1">
          <mxGeometry x="2457.5" y="38" width="100" height="40" as="geometry" />
        </mxCell>
        <mxCell id="2SUrX7hE4mHxBvQzwb3O-6" value="Stock" style="whiteSpace=wrap;html=1;align=center;" vertex="1" parent="1">
          <mxGeometry x="1880.5" y="38" width="100" height="40" as="geometry" />
        </mxCell>
        <mxCell id="2SUrX7hE4mHxBvQzwb3O-7" value="" style="endArrow=none;html=1;rounded=0;exitX=1;exitY=0.5;exitDx=0;exitDy=0;entryX=0;entryY=0.5;entryDx=0;entryDy=0;" edge="1" parent="1" source="2SUrX7hE4mHxBvQzwb3O-14" target="2SUrX7hE4mHxBvQzwb3O-3">
          <mxGeometry relative="1" as="geometry">
            <mxPoint x="946" y="455" as="sourcePoint" />
            <mxPoint x="1006" y="425" as="targetPoint" />
          </mxGeometry>
        </mxCell>
        <mxCell id="2SUrX7hE4mHxBvQzwb3O-9" value="" style="endArrow=none;html=1;rounded=0;exitX=1;exitY=0.5;exitDx=0;exitDy=0;entryX=0;entryY=0.5;entryDx=0;entryDy=0;" edge="1" parent="1" source="2SUrX7hE4mHxBvQzwb3O-16" target="2SUrX7hE4mHxBvQzwb3O-4">
          <mxGeometry relative="1" as="geometry">
            <mxPoint x="1329" y="470" as="sourcePoint" />
            <mxPoint x="1609" y="470" as="targetPoint" />
          </mxGeometry>
        </mxCell>
        <mxCell id="2SUrX7hE4mHxBvQzwb3O-10" value="" style="endArrow=none;html=1;rounded=0;exitX=1;exitY=0.5;exitDx=0;exitDy=0;entryX=0;entryY=0.5;entryDx=0;entryDy=0;" edge="1" parent="1" source="2SUrX7hE4mHxBvQzwb3O-57" target="2SUrX7hE4mHxBvQzwb3O-5">
          <mxGeometry relative="1" as="geometry">
            <mxPoint x="2370.5" y="-272" as="sourcePoint" />
            <mxPoint x="2370.5" y="-82" as="targetPoint" />
          </mxGeometry>
        </mxCell>
        <mxCell id="2SUrX7hE4mHxBvQzwb3O-13" value="" style="endArrow=none;html=1;rounded=0;exitX=1;exitY=0.5;exitDx=0;exitDy=0;entryX=0;entryY=0.5;entryDx=0;entryDy=0;" edge="1" parent="1" source="2SUrX7hE4mHxBvQzwb3O-2" target="2SUrX7hE4mHxBvQzwb3O-14">
          <mxGeometry relative="1" as="geometry">
            <mxPoint x="569" y="460" as="sourcePoint" />
            <mxPoint x="639" y="460" as="targetPoint" />
          </mxGeometry>
        </mxCell>
        <mxCell id="2SUrX7hE4mHxBvQzwb3O-14" value="Realiza" style="shape=rhombus;perimeter=rhombusPerimeter;whiteSpace=wrap;html=1;align=center;" vertex="1" parent="1">
          <mxGeometry x="759" y="430" width="120" height="60" as="geometry" />
        </mxCell>
        <mxCell id="2SUrX7hE4mHxBvQzwb3O-15" value="" style="endArrow=none;html=1;rounded=0;exitX=1;exitY=0.5;exitDx=0;exitDy=0;" edge="1" parent="1" source="2SUrX7hE4mHxBvQzwb3O-3" target="2SUrX7hE4mHxBvQzwb3O-16">
          <mxGeometry relative="1" as="geometry">
            <mxPoint x="1280" y="460" as="sourcePoint" />
            <mxPoint x="1426" y="460" as="targetPoint" />
          </mxGeometry>
        </mxCell>
        <mxCell id="2SUrX7hE4mHxBvQzwb3O-16" value="Tiene" style="shape=rhombus;perimeter=rhombusPerimeter;whiteSpace=wrap;html=1;align=center;" vertex="1" parent="1">
          <mxGeometry x="1533" y="430" width="120" height="60" as="geometry" />
        </mxCell>
        <mxCell id="2SUrX7hE4mHxBvQzwb3O-17" value="telefonoUusu" style="ellipse;shape=doubleEllipse;margin=3;whiteSpace=wrap;html=1;align=center;" vertex="1" parent="1">
          <mxGeometry x="1292.5" y="50" width="100" height="40" as="geometry" />
        </mxCell>
        <mxCell id="2SUrX7hE4mHxBvQzwb3O-18" value="estadoUsu" style="ellipse;whiteSpace=wrap;html=1;align=center;" vertex="1" parent="1">
          <mxGeometry x="1292.5" y="110" width="100" height="40" as="geometry" />
        </mxCell>
        <mxCell id="2SUrX7hE4mHxBvQzwb3O-19" value="docUsuario" style="ellipse;whiteSpace=wrap;html=1;align=center;fontStyle=4;" vertex="1" parent="1">
          <mxGeometry x="1136" y="-30" width="100" height="40" as="geometry" />
        </mxCell>
        <mxCell id="2SUrX7hE4mHxBvQzwb3O-20" value="nickname" style="ellipse;whiteSpace=wrap;html=1;align=center;" vertex="1" parent="1">
          <mxGeometry x="972" y="90" width="100" height="40" as="geometry" />
        </mxCell>
        <mxCell id="2SUrX7hE4mHxBvQzwb3O-21" value="correoUsu" style="ellipse;shape=doubleEllipse;margin=3;whiteSpace=wrap;html=1;align=center;" vertex="1" parent="1">
          <mxGeometry x="979" y="30" width="100" height="40" as="geometry" />
        </mxCell>
        <mxCell id="2SUrX7hE4mHxBvQzwb3O-22" value="nombreUsu" style="ellipse;whiteSpace=wrap;html=1;align=center;" vertex="1" parent="1">
          <mxGeometry x="1026" y="-15" width="100" height="40" as="geometry" />
        </mxCell>
        <mxCell id="2SUrX7hE4mHxBvQzwb3O-24" value="direcciónUsu" style="ellipse;whiteSpace=wrap;html=1;align=center;" vertex="1" parent="1">
          <mxGeometry x="1236" y="-10" width="100" height="40" as="geometry" />
        </mxCell>
        <mxCell id="2SUrX7hE4mHxBvQzwb3O-25" value="" style="endArrow=none;html=1;rounded=0;exitX=0.75;exitY=0;exitDx=0;exitDy=0;entryX=0.5;entryY=1;entryDx=0;entryDy=0;" edge="1" parent="1" source="2SUrX7hE4mHxBvQzwb3O-1" target="2SUrX7hE4mHxBvQzwb3O-24">
          <mxGeometry relative="1" as="geometry">
            <mxPoint x="1206" y="50" as="sourcePoint" />
            <mxPoint x="1271" y="30" as="targetPoint" />
          </mxGeometry>
        </mxCell>
        <mxCell id="2SUrX7hE4mHxBvQzwb3O-26" value="" style="endArrow=none;html=1;rounded=0;exitX=0.5;exitY=0;exitDx=0;exitDy=0;entryX=0.5;entryY=1;entryDx=0;entryDy=0;" edge="1" parent="1" source="2SUrX7hE4mHxBvQzwb3O-1" target="2SUrX7hE4mHxBvQzwb3O-19">
          <mxGeometry relative="1" as="geometry">
            <mxPoint x="1176" y="50" as="sourcePoint" />
            <mxPoint x="1336" y="50" as="targetPoint" />
          </mxGeometry>
        </mxCell>
        <mxCell id="2SUrX7hE4mHxBvQzwb3O-27" value="" style="endArrow=none;html=1;rounded=0;entryX=0.5;entryY=1;entryDx=0;entryDy=0;exitX=0.25;exitY=0;exitDx=0;exitDy=0;" edge="1" parent="1" source="2SUrX7hE4mHxBvQzwb3O-1" target="2SUrX7hE4mHxBvQzwb3O-22">
          <mxGeometry relative="1" as="geometry">
            <mxPoint x="1186" y="80" as="sourcePoint" />
            <mxPoint x="1296" y="50" as="targetPoint" />
          </mxGeometry>
        </mxCell>
        <mxCell id="2SUrX7hE4mHxBvQzwb3O-28" value="" style="endArrow=none;html=1;rounded=0;entryX=0;entryY=0;entryDx=0;entryDy=0;exitX=1;exitY=1;exitDx=0;exitDy=0;" edge="1" parent="1" source="2SUrX7hE4mHxBvQzwb3O-21" target="2SUrX7hE4mHxBvQzwb3O-1">
          <mxGeometry relative="1" as="geometry">
            <mxPoint x="966" y="110" as="sourcePoint" />
            <mxPoint x="1126" y="110" as="targetPoint" />
          </mxGeometry>
        </mxCell>
        <mxCell id="2SUrX7hE4mHxBvQzwb3O-29" value="" style="endArrow=none;html=1;rounded=0;entryX=0;entryY=0.5;entryDx=0;entryDy=0;exitX=1;exitY=0.5;exitDx=0;exitDy=0;" edge="1" parent="1" source="2SUrX7hE4mHxBvQzwb3O-20" target="2SUrX7hE4mHxBvQzwb3O-1">
          <mxGeometry relative="1" as="geometry">
            <mxPoint x="1036" y="140" as="sourcePoint" />
            <mxPoint x="1196" y="140" as="targetPoint" />
          </mxGeometry>
        </mxCell>
        <mxCell id="2SUrX7hE4mHxBvQzwb3O-31" value="" style="endArrow=none;html=1;rounded=0;exitX=1;exitY=0.5;exitDx=0;exitDy=0;entryX=0;entryY=0.5;entryDx=0;entryDy=0;" edge="1" parent="1" source="2SUrX7hE4mHxBvQzwb3O-1" target="2SUrX7hE4mHxBvQzwb3O-18">
          <mxGeometry relative="1" as="geometry">
            <mxPoint x="1196" y="140" as="sourcePoint" />
            <mxPoint x="1356" y="140" as="targetPoint" />
          </mxGeometry>
        </mxCell>
        <mxCell id="2SUrX7hE4mHxBvQzwb3O-32" value="" style="endArrow=none;html=1;rounded=0;exitX=1;exitY=0;exitDx=0;exitDy=0;entryX=0;entryY=0.5;entryDx=0;entryDy=0;" edge="1" parent="1" source="2SUrX7hE4mHxBvQzwb3O-1" target="2SUrX7hE4mHxBvQzwb3O-17">
          <mxGeometry relative="1" as="geometry">
            <mxPoint x="1206" y="150" as="sourcePoint" />
            <mxPoint x="1366" y="150" as="targetPoint" />
            <Array as="points" />
          </mxGeometry>
        </mxCell>
        <mxCell id="2SUrX7hE4mHxBvQzwb3O-33" value="nombre" style="ellipse;whiteSpace=wrap;html=1;align=center;" vertex="1" parent="1">
          <mxGeometry x="946" y="-70" width="80" height="30" as="geometry" />
        </mxCell>
        <mxCell id="2SUrX7hE4mHxBvQzwb3O-34" value="apellido" style="ellipse;whiteSpace=wrap;html=1;align=center;" vertex="1" parent="1">
          <mxGeometry x="1036" y="-80" width="80" height="30" as="geometry" />
        </mxCell>
        <mxCell id="2SUrX7hE4mHxBvQzwb3O-35" value="" style="endArrow=none;html=1;rounded=0;exitX=1;exitY=1;exitDx=0;exitDy=0;entryX=0.339;entryY=0.025;entryDx=0;entryDy=0;entryPerimeter=0;" edge="1" parent="1" source="2SUrX7hE4mHxBvQzwb3O-33" target="2SUrX7hE4mHxBvQzwb3O-22">
          <mxGeometry relative="1" as="geometry">
            <mxPoint x="986" y="-40" as="sourcePoint" />
            <mxPoint x="1146" y="-40" as="targetPoint" />
          </mxGeometry>
        </mxCell>
        <mxCell id="2SUrX7hE4mHxBvQzwb3O-36" value="" style="endArrow=none;html=1;rounded=0;exitX=0.5;exitY=1;exitDx=0;exitDy=0;entryX=0.364;entryY=0.016;entryDx=0;entryDy=0;entryPerimeter=0;" edge="1" parent="1" source="2SUrX7hE4mHxBvQzwb3O-34" target="2SUrX7hE4mHxBvQzwb3O-22">
          <mxGeometry relative="1" as="geometry">
            <mxPoint x="1066" y="-60" as="sourcePoint" />
            <mxPoint x="1226" y="-60" as="targetPoint" />
          </mxGeometry>
        </mxCell>
        <mxCell id="2SUrX7hE4mHxBvQzwb3O-51" value="tipoCliente" style="ellipse;whiteSpace=wrap;html=1;align=center;" vertex="1" parent="1">
          <mxGeometry x="569" y="390" width="100" height="40" as="geometry" />
        </mxCell>
        <mxCell id="2SUrX7hE4mHxBvQzwb3O-52" value="estadoCliente" style="ellipse;whiteSpace=wrap;html=1;align=center;" vertex="1" parent="1">
          <mxGeometry x="410" y="525" width="100" height="40" as="geometry" />
        </mxCell>
        <mxCell id="2SUrX7hE4mHxBvQzwb3O-56" value="" style="endArrow=none;html=1;rounded=0;exitX=1;exitY=0.5;exitDx=0;exitDy=0;entryX=0;entryY=0.5;entryDx=0;entryDy=0;" edge="1" parent="1" source="2SUrX7hE4mHxBvQzwb3O-6" target="2SUrX7hE4mHxBvQzwb3O-57">
          <mxGeometry relative="1" as="geometry">
            <mxPoint x="1890.5" y="-72" as="sourcePoint" />
            <mxPoint x="2434.5" y="-72" as="targetPoint" />
          </mxGeometry>
        </mxCell>
        <mxCell id="2SUrX7hE4mHxBvQzwb3O-57" value="Contiene" style="shape=rhombus;perimeter=rhombusPerimeter;whiteSpace=wrap;html=1;align=center;" vertex="1" parent="1">
          <mxGeometry x="2190" y="28" width="120" height="60" as="geometry" />
        </mxCell>
        <mxCell id="2SUrX7hE4mHxBvQzwb3O-58" value="telefonoCliente" style="ellipse;shape=doubleEllipse;margin=3;whiteSpace=wrap;html=1;align=center;" vertex="1" parent="1">
          <mxGeometry x="345.5" y="474.5" width="100" height="40" as="geometry" />
        </mxCell>
        <mxCell id="2SUrX7hE4mHxBvQzwb3O-59" value="correoCliente" style="ellipse;shape=doubleEllipse;margin=3;whiteSpace=wrap;html=1;align=center;" vertex="1" parent="1">
          <mxGeometry x="619" y="474.5" width="100" height="40" as="geometry" />
        </mxCell>
        <mxCell id="2SUrX7hE4mHxBvQzwb3O-60" value="" style="endArrow=none;html=1;rounded=0;exitX=1;exitY=0;exitDx=0;exitDy=0;entryX=0.25;entryY=1;entryDx=0;entryDy=0;" edge="1" parent="1" source="2SUrX7hE4mHxBvQzwb3O-58" target="2SUrX7hE4mHxBvQzwb3O-2">
          <mxGeometry relative="1" as="geometry">
            <mxPoint x="469" y="500" as="sourcePoint" />
            <mxPoint x="629" y="500" as="targetPoint" />
          </mxGeometry>
        </mxCell>
        <mxCell id="2SUrX7hE4mHxBvQzwb3O-61" value="" style="endArrow=none;html=1;rounded=0;exitX=0.5;exitY=0;exitDx=0;exitDy=0;entryX=0.5;entryY=1;entryDx=0;entryDy=0;" edge="1" parent="1" source="2SUrX7hE4mHxBvQzwb3O-52" target="2SUrX7hE4mHxBvQzwb3O-2">
          <mxGeometry relative="1" as="geometry">
            <mxPoint x="509" y="510" as="sourcePoint" />
            <mxPoint x="669" y="510" as="targetPoint" />
          </mxGeometry>
        </mxCell>
        <mxCell id="2SUrX7hE4mHxBvQzwb3O-62" value="" style="endArrow=none;html=1;rounded=0;exitX=0.75;exitY=1;exitDx=0;exitDy=0;entryX=0;entryY=0;entryDx=0;entryDy=0;" edge="1" parent="1" source="2SUrX7hE4mHxBvQzwb3O-2" target="2SUrX7hE4mHxBvQzwb3O-59">
          <mxGeometry relative="1" as="geometry">
            <mxPoint x="549" y="490" as="sourcePoint" />
            <mxPoint x="709" y="490" as="targetPoint" />
          </mxGeometry>
        </mxCell>
        <mxCell id="2SUrX7hE4mHxBvQzwb3O-63" value="" style="endArrow=none;html=1;rounded=0;exitX=0.5;exitY=0;exitDx=0;exitDy=0;entryX=0.5;entryY=1;entryDx=0;entryDy=0;" edge="1" parent="1" source="2SUrX7hE4mHxBvQzwb3O-2" target="2SUrX7hE4mHxBvQzwb3O-67">
          <mxGeometry relative="1" as="geometry">
            <mxPoint x="519" y="410" as="sourcePoint" />
            <mxPoint x="519" y="390" as="targetPoint" />
          </mxGeometry>
        </mxCell>
        <mxCell id="2SUrX7hE4mHxBvQzwb3O-64" value="" style="endArrow=none;html=1;rounded=0;exitX=0.25;exitY=0;exitDx=0;exitDy=0;entryX=1;entryY=1;entryDx=0;entryDy=0;" edge="1" parent="1" source="2SUrX7hE4mHxBvQzwb3O-2" target="2SUrX7hE4mHxBvQzwb3O-66">
          <mxGeometry relative="1" as="geometry">
            <mxPoint x="479" y="420" as="sourcePoint" />
            <mxPoint x="447.22366318451714" y="414.194610537044" as="targetPoint" />
          </mxGeometry>
        </mxCell>
        <mxCell id="2SUrX7hE4mHxBvQzwb3O-65" value="" style="endArrow=none;html=1;rounded=0;exitX=0.75;exitY=0;exitDx=0;exitDy=0;entryX=0;entryY=1;entryDx=0;entryDy=0;" edge="1" parent="1" source="2SUrX7hE4mHxBvQzwb3O-2" target="2SUrX7hE4mHxBvQzwb3O-51">
          <mxGeometry relative="1" as="geometry">
            <mxPoint x="549" y="420" as="sourcePoint" />
            <mxPoint x="709" y="420" as="targetPoint" />
          </mxGeometry>
        </mxCell>
        <mxCell id="2SUrX7hE4mHxBvQzwb3O-66" value="docCliente" style="ellipse;whiteSpace=wrap;html=1;align=center;fontStyle=4;" vertex="1" parent="1">
          <mxGeometry x="369" y="390" width="100" height="40" as="geometry" />
        </mxCell>
        <mxCell id="2SUrX7hE4mHxBvQzwb3O-67" value="nombreCliente" style="ellipse;whiteSpace=wrap;html=1;align=center;" vertex="1" parent="1">
          <mxGeometry x="469" y="350" width="100" height="40" as="geometry" />
        </mxCell>
        <mxCell id="2SUrX7hE4mHxBvQzwb3O-68" value="nombre" style="ellipse;whiteSpace=wrap;html=1;align=center;" vertex="1" parent="1">
          <mxGeometry x="399" y="290" width="100" height="40" as="geometry" />
        </mxCell>
        <mxCell id="2SUrX7hE4mHxBvQzwb3O-69" value="apellido" style="ellipse;whiteSpace=wrap;html=1;align=center;" vertex="1" parent="1">
          <mxGeometry x="539" y="290" width="100" height="40" as="geometry" />
        </mxCell>
        <mxCell id="2SUrX7hE4mHxBvQzwb3O-70" value="" style="endArrow=none;html=1;rounded=0;exitX=0.5;exitY=0;exitDx=0;exitDy=0;entryX=0.5;entryY=1;entryDx=0;entryDy=0;" edge="1" parent="1" source="2SUrX7hE4mHxBvQzwb3O-67" target="2SUrX7hE4mHxBvQzwb3O-69">
          <mxGeometry relative="1" as="geometry">
            <mxPoint x="509" y="330" as="sourcePoint" />
            <mxPoint x="669" y="330" as="targetPoint" />
          </mxGeometry>
        </mxCell>
        <mxCell id="2SUrX7hE4mHxBvQzwb3O-71" value="" style="endArrow=none;html=1;rounded=0;exitX=0.5;exitY=1;exitDx=0;exitDy=0;entryX=0.5;entryY=0;entryDx=0;entryDy=0;" edge="1" parent="1" source="2SUrX7hE4mHxBvQzwb3O-68" target="2SUrX7hE4mHxBvQzwb3O-67">
          <mxGeometry relative="1" as="geometry">
            <mxPoint x="449" y="330" as="sourcePoint" />
            <mxPoint x="609" y="330" as="targetPoint" />
          </mxGeometry>
        </mxCell>
        <mxCell id="2SUrX7hE4mHxBvQzwb3O-72" value="1" style="text;html=1;align=center;verticalAlign=middle;whiteSpace=wrap;rounded=0;" vertex="1" parent="1">
          <mxGeometry x="1136" y="210" width="60" height="30" as="geometry" />
        </mxCell>
        <mxCell id="2SUrX7hE4mHxBvQzwb3O-73" value="n" style="text;html=1;align=center;verticalAlign=middle;whiteSpace=wrap;rounded=0;" vertex="1" parent="1">
          <mxGeometry x="1136" y="310" width="60" height="30" as="geometry" />
        </mxCell>
        <mxCell id="2SUrX7hE4mHxBvQzwb3O-74" value="1" style="text;html=1;align=center;verticalAlign=middle;whiteSpace=wrap;rounded=0;" vertex="1" parent="1">
          <mxGeometry x="719" y="430" width="60" height="30" as="geometry" />
        </mxCell>
        <mxCell id="2SUrX7hE4mHxBvQzwb3O-75" value="n" style="text;html=1;align=center;verticalAlign=middle;whiteSpace=wrap;rounded=0;" vertex="1" parent="1">
          <mxGeometry x="866" y="430" width="60" height="30" as="geometry" />
        </mxCell>
        <mxCell id="2SUrX7hE4mHxBvQzwb3O-76" value="precioVenta" style="ellipse;whiteSpace=wrap;html=1;align=center;" vertex="1" parent="1">
          <mxGeometry x="996" y="407.5" width="100" height="40" as="geometry" />
        </mxCell>
        <mxCell id="2SUrX7hE4mHxBvQzwb3O-77" value="direccionEnvio" style="ellipse;whiteSpace=wrap;html=1;align=center;" vertex="1" parent="1">
          <mxGeometry x="1216" y="360" width="100" height="40" as="geometry" />
        </mxCell>
        <mxCell id="2SUrX7hE4mHxBvQzwb3O-79" value="codigoProducto" style="ellipse;whiteSpace=wrap;html=1;align=center;" vertex="1" parent="1">
          <mxGeometry x="1269" y="407.5" width="100" height="40" as="geometry" />
        </mxCell>
        <mxCell id="2SUrX7hE4mHxBvQzwb3O-80" value="fechaEntrega" style="ellipse;whiteSpace=wrap;html=1;align=center;" vertex="1" parent="1">
          <mxGeometry x="1006" y="480" width="100" height="40" as="geometry" />
        </mxCell>
        <mxCell id="2SUrX7hE4mHxBvQzwb3O-81" value="fechaReparto" style="ellipse;whiteSpace=wrap;html=1;align=center;" vertex="1" parent="1">
          <mxGeometry x="1267" y="480" width="100" height="40" as="geometry" />
        </mxCell>
        <mxCell id="2SUrX7hE4mHxBvQzwb3O-82" value="estadoVenta" style="ellipse;whiteSpace=wrap;html=1;align=center;" vertex="1" parent="1">
          <mxGeometry x="1196" y="525" width="100" height="40" as="geometry" />
        </mxCell>
        <mxCell id="2SUrX7hE4mHxBvQzwb3O-83" value="codigoVenta" style="ellipse;whiteSpace=wrap;html=1;align=center;fontStyle=4;" vertex="1" parent="1">
          <mxGeometry x="1060" y="360" width="100" height="40" as="geometry" />
        </mxCell>
        <mxCell id="2SUrX7hE4mHxBvQzwb3O-84" value="productoEnviado" style="ellipse;shape=doubleEllipse;margin=3;whiteSpace=wrap;html=1;align=center;" vertex="1" parent="1">
          <mxGeometry x="1076" y="525" width="100" height="40" as="geometry" />
        </mxCell>
        <mxCell id="2SUrX7hE4mHxBvQzwb3O-85" value="" style="endArrow=none;html=1;rounded=0;exitX=0.5;exitY=0;exitDx=0;exitDy=0;entryX=0.5;entryY=1;entryDx=0;entryDy=0;" edge="1" parent="1" source="2SUrX7hE4mHxBvQzwb3O-3" target="2SUrX7hE4mHxBvQzwb3O-77">
          <mxGeometry relative="1" as="geometry">
            <mxPoint x="1186" y="420" as="sourcePoint" />
            <mxPoint x="1346" y="420" as="targetPoint" />
          </mxGeometry>
        </mxCell>
        <mxCell id="2SUrX7hE4mHxBvQzwb3O-87" value="" style="endArrow=none;html=1;rounded=0;exitX=1;exitY=0;exitDx=0;exitDy=0;entryX=0.018;entryY=0.648;entryDx=0;entryDy=0;entryPerimeter=0;" edge="1" parent="1" source="2SUrX7hE4mHxBvQzwb3O-3" target="2SUrX7hE4mHxBvQzwb3O-79">
          <mxGeometry relative="1" as="geometry">
            <mxPoint x="1226" y="430" as="sourcePoint" />
            <mxPoint x="1386" y="430" as="targetPoint" />
          </mxGeometry>
        </mxCell>
        <mxCell id="2SUrX7hE4mHxBvQzwb3O-88" value="" style="endArrow=none;html=1;rounded=0;entryX=0;entryY=0;entryDx=0;entryDy=0;exitX=0.976;exitY=0.646;exitDx=0;exitDy=0;exitPerimeter=0;" edge="1" parent="1" source="2SUrX7hE4mHxBvQzwb3O-76" target="2SUrX7hE4mHxBvQzwb3O-3">
          <mxGeometry relative="1" as="geometry">
            <mxPoint x="1126" y="420" as="sourcePoint" />
            <mxPoint x="1286" y="420" as="targetPoint" />
          </mxGeometry>
        </mxCell>
        <mxCell id="2SUrX7hE4mHxBvQzwb3O-89" value="" style="endArrow=none;html=1;rounded=0;exitX=0.797;exitY=0.905;exitDx=0;exitDy=0;exitPerimeter=0;entryX=0.5;entryY=0;entryDx=0;entryDy=0;" edge="1" parent="1" source="2SUrX7hE4mHxBvQzwb3O-83" target="2SUrX7hE4mHxBvQzwb3O-3">
          <mxGeometry relative="1" as="geometry">
            <mxPoint x="1126" y="400" as="sourcePoint" />
            <mxPoint x="1286" y="400" as="targetPoint" />
          </mxGeometry>
        </mxCell>
        <mxCell id="2SUrX7hE4mHxBvQzwb3O-90" value="" style="endArrow=none;html=1;rounded=0;exitX=1;exitY=0.5;exitDx=0;exitDy=0;entryX=0;entryY=1;entryDx=0;entryDy=0;" edge="1" parent="1" source="2SUrX7hE4mHxBvQzwb3O-80" target="2SUrX7hE4mHxBvQzwb3O-3">
          <mxGeometry relative="1" as="geometry">
            <mxPoint x="1106" y="500" as="sourcePoint" />
            <mxPoint x="1266" y="500" as="targetPoint" />
          </mxGeometry>
        </mxCell>
        <mxCell id="2SUrX7hE4mHxBvQzwb3O-91" value="" style="endArrow=none;html=1;rounded=0;exitX=0.529;exitY=0.021;exitDx=0;exitDy=0;exitPerimeter=0;entryX=0.25;entryY=1;entryDx=0;entryDy=0;" edge="1" parent="1" source="2SUrX7hE4mHxBvQzwb3O-84" target="2SUrX7hE4mHxBvQzwb3O-3">
          <mxGeometry relative="1" as="geometry">
            <mxPoint x="1126" y="500" as="sourcePoint" />
            <mxPoint x="1286" y="500" as="targetPoint" />
          </mxGeometry>
        </mxCell>
        <mxCell id="2SUrX7hE4mHxBvQzwb3O-92" value="" style="endArrow=none;html=1;rounded=0;exitX=1;exitY=1;exitDx=0;exitDy=0;entryX=0;entryY=0.5;entryDx=0;entryDy=0;" edge="1" parent="1" source="2SUrX7hE4mHxBvQzwb3O-3" target="2SUrX7hE4mHxBvQzwb3O-81">
          <mxGeometry relative="1" as="geometry">
            <mxPoint x="1246" y="480" as="sourcePoint" />
            <mxPoint x="1406" y="480" as="targetPoint" />
          </mxGeometry>
        </mxCell>
        <mxCell id="2SUrX7hE4mHxBvQzwb3O-93" value="" style="endArrow=none;html=1;rounded=0;exitX=0.75;exitY=1;exitDx=0;exitDy=0;entryX=0.5;entryY=0;entryDx=0;entryDy=0;" edge="1" parent="1" source="2SUrX7hE4mHxBvQzwb3O-3" target="2SUrX7hE4mHxBvQzwb3O-82">
          <mxGeometry relative="1" as="geometry">
            <mxPoint x="1216" y="490" as="sourcePoint" />
            <mxPoint x="1376" y="490" as="targetPoint" />
          </mxGeometry>
        </mxCell>
        <mxCell id="2SUrX7hE4mHxBvQzwb3O-94" value="municipio" style="ellipse;whiteSpace=wrap;html=1;align=center;" vertex="1" parent="1">
          <mxGeometry x="1386" y="380" width="80" height="30" as="geometry" />
        </mxCell>
        <mxCell id="2SUrX7hE4mHxBvQzwb3O-95" value="ciudad" style="ellipse;whiteSpace=wrap;html=1;align=center;" vertex="1" parent="1">
          <mxGeometry x="1289" y="280" width="80" height="30" as="geometry" />
        </mxCell>
        <mxCell id="2SUrX7hE4mHxBvQzwb3O-97" value="calle" style="ellipse;whiteSpace=wrap;html=1;align=center;" vertex="1" parent="1">
          <mxGeometry x="1367" y="300" width="80" height="30" as="geometry" />
        </mxCell>
        <mxCell id="2SUrX7hE4mHxBvQzwb3O-98" value="carrera" style="ellipse;whiteSpace=wrap;html=1;align=center;" vertex="1" parent="1">
          <mxGeometry x="1392.5" y="340" width="80" height="30" as="geometry" />
        </mxCell>
        <mxCell id="2SUrX7hE4mHxBvQzwb3O-108" value="dia" style="ellipse;whiteSpace=wrap;html=1;align=center;" vertex="1" parent="1">
          <mxGeometry x="912" y="490" width="67" height="20" as="geometry" />
        </mxCell>
        <mxCell id="2SUrX7hE4mHxBvQzwb3O-109" value="mes" style="ellipse;whiteSpace=wrap;html=1;align=center;" vertex="1" parent="1">
          <mxGeometry x="912" y="515" width="67" height="20" as="geometry" />
        </mxCell>
        <mxCell id="2SUrX7hE4mHxBvQzwb3O-110" value="año" style="ellipse;whiteSpace=wrap;html=1;align=center;" vertex="1" parent="1">
          <mxGeometry x="979" y="535" width="67" height="20" as="geometry" />
        </mxCell>
        <mxCell id="2SUrX7hE4mHxBvQzwb3O-111" value="" style="endArrow=none;html=1;rounded=0;exitX=1;exitY=0.5;exitDx=0;exitDy=0;entryX=0;entryY=0.5;entryDx=0;entryDy=0;" edge="1" parent="1" source="2SUrX7hE4mHxBvQzwb3O-108" target="2SUrX7hE4mHxBvQzwb3O-80">
          <mxGeometry relative="1" as="geometry">
            <mxPoint x="986" y="510" as="sourcePoint" />
            <mxPoint x="1146" y="510" as="targetPoint" />
          </mxGeometry>
        </mxCell>
        <mxCell id="2SUrX7hE4mHxBvQzwb3O-112" value="" style="endArrow=none;html=1;rounded=0;exitX=1.003;exitY=0.29;exitDx=0;exitDy=0;exitPerimeter=0;" edge="1" parent="1" source="2SUrX7hE4mHxBvQzwb3O-109" target="2SUrX7hE4mHxBvQzwb3O-80">
          <mxGeometry relative="1" as="geometry">
            <mxPoint x="966" y="520" as="sourcePoint" />
            <mxPoint x="1126" y="520" as="targetPoint" />
          </mxGeometry>
        </mxCell>
        <mxCell id="2SUrX7hE4mHxBvQzwb3O-113" value="" style="endArrow=none;html=1;rounded=0;exitX=0.5;exitY=0;exitDx=0;exitDy=0;entryX=0.286;entryY=0.975;entryDx=0;entryDy=0;entryPerimeter=0;" edge="1" parent="1" source="2SUrX7hE4mHxBvQzwb3O-110" target="2SUrX7hE4mHxBvQzwb3O-80">
          <mxGeometry relative="1" as="geometry">
            <mxPoint x="1016" y="530" as="sourcePoint" />
            <mxPoint x="1176" y="530" as="targetPoint" />
          </mxGeometry>
        </mxCell>
        <mxCell id="2SUrX7hE4mHxBvQzwb3O-114" value="dia" style="ellipse;whiteSpace=wrap;html=1;align=center;" vertex="1" parent="1">
          <mxGeometry x="1419" y="490" width="67" height="20" as="geometry" />
        </mxCell>
        <mxCell id="2SUrX7hE4mHxBvQzwb3O-115" value="mes" style="ellipse;whiteSpace=wrap;html=1;align=center;" vertex="1" parent="1">
          <mxGeometry x="1399" y="514.5" width="67" height="20" as="geometry" />
        </mxCell>
        <mxCell id="2SUrX7hE4mHxBvQzwb3O-116" value="año" style="ellipse;whiteSpace=wrap;html=1;align=center;" vertex="1" parent="1">
          <mxGeometry x="1336" y="530" width="67" height="20" as="geometry" />
        </mxCell>
        <mxCell id="2SUrX7hE4mHxBvQzwb3O-117" value="" style="endArrow=none;html=1;rounded=0;exitX=0.5;exitY=0;exitDx=0;exitDy=0;entryX=0.793;entryY=0.892;entryDx=0;entryDy=0;entryPerimeter=0;" edge="1" parent="1" source="2SUrX7hE4mHxBvQzwb3O-116" target="2SUrX7hE4mHxBvQzwb3O-81">
          <mxGeometry relative="1" as="geometry">
            <mxPoint x="1346" y="530" as="sourcePoint" />
            <mxPoint x="1506" y="530" as="targetPoint" />
          </mxGeometry>
        </mxCell>
        <mxCell id="2SUrX7hE4mHxBvQzwb3O-118" value="" style="endArrow=none;html=1;rounded=0;exitX=0.923;exitY=0.792;exitDx=0;exitDy=0;exitPerimeter=0;entryX=0;entryY=0;entryDx=0;entryDy=0;" edge="1" parent="1" source="2SUrX7hE4mHxBvQzwb3O-81" target="2SUrX7hE4mHxBvQzwb3O-115">
          <mxGeometry relative="1" as="geometry">
            <mxPoint x="1376" y="520" as="sourcePoint" />
            <mxPoint x="1536" y="520" as="targetPoint" />
          </mxGeometry>
        </mxCell>
        <mxCell id="2SUrX7hE4mHxBvQzwb3O-119" value="" style="endArrow=none;html=1;rounded=0;exitX=1;exitY=0.5;exitDx=0;exitDy=0;entryX=0;entryY=0.5;entryDx=0;entryDy=0;" edge="1" parent="1" source="2SUrX7hE4mHxBvQzwb3O-81" target="2SUrX7hE4mHxBvQzwb3O-114">
          <mxGeometry relative="1" as="geometry">
            <mxPoint x="1396" y="500" as="sourcePoint" />
            <mxPoint x="1556" y="500" as="targetPoint" />
          </mxGeometry>
        </mxCell>
        <mxCell id="2SUrX7hE4mHxBvQzwb3O-120" value="1" style="text;html=1;align=center;verticalAlign=middle;whiteSpace=wrap;rounded=0;" vertex="1" parent="1">
          <mxGeometry x="1499" y="430" width="60" height="30" as="geometry" />
        </mxCell>
        <mxCell id="2SUrX7hE4mHxBvQzwb3O-121" value="n" style="text;html=1;align=center;verticalAlign=middle;whiteSpace=wrap;rounded=0;" vertex="1" parent="1">
          <mxGeometry x="1629" y="430" width="60" height="30" as="geometry" />
        </mxCell>
        <mxCell id="2SUrX7hE4mHxBvQzwb3O-122" value="docCliente" style="ellipse;whiteSpace=wrap;html=1;align=center;" vertex="1" parent="1">
          <mxGeometry x="2013.5" y="350" width="87" height="40" as="geometry" />
        </mxCell>
        <mxCell id="2SUrX7hE4mHxBvQzwb3O-123" value="emailCliente" style="ellipse;whiteSpace=wrap;html=1;align=center;" vertex="1" parent="1">
          <mxGeometry x="2060" y="390" width="91" height="40" as="geometry" />
        </mxCell>
        <mxCell id="2SUrX7hE4mHxBvQzwb3O-124" value="fechaEmision" style="ellipse;whiteSpace=wrap;html=1;align=center;" vertex="1" parent="1">
          <mxGeometry x="2050" y="440" width="100" height="40" as="geometry" />
        </mxCell>
        <mxCell id="2SUrX7hE4mHxBvQzwb3O-125" value="estadoPago" style="ellipse;whiteSpace=wrap;html=1;align=center;" vertex="1" parent="1">
          <mxGeometry x="1988" y="517.25" width="88" height="45.5" as="geometry" />
        </mxCell>
        <mxCell id="2SUrX7hE4mHxBvQzwb3O-126" value="fechaVencimiento" style="ellipse;whiteSpace=wrap;html=1;align=center;" vertex="1" parent="1">
          <mxGeometry x="1789" y="515" width="100" height="40" as="geometry" />
        </mxCell>
        <mxCell id="2SUrX7hE4mHxBvQzwb3O-127" value="estadoFact" style="ellipse;whiteSpace=wrap;html=1;align=center;" vertex="1" parent="1">
          <mxGeometry x="1729" y="470" width="100" height="40" as="geometry" />
        </mxCell>
        <mxCell id="2SUrX7hE4mHxBvQzwb3O-128" value="codigoFact" style="ellipse;whiteSpace=wrap;html=1;align=center;fontStyle=4;" vertex="1" parent="1">
          <mxGeometry x="1729" y="414" width="100" height="40" as="geometry" />
        </mxCell>
        <mxCell id="2SUrX7hE4mHxBvQzwb3O-129" value="totalFact" style="ellipse;whiteSpace=wrap;html=1;align=center;dashed=1;" vertex="1" parent="1">
          <mxGeometry x="2061" y="487" width="78" height="40" as="geometry" />
        </mxCell>
        <mxCell id="2SUrX7hE4mHxBvQzwb3O-130" value="cantidadProducto" style="ellipse;shape=doubleEllipse;margin=3;whiteSpace=wrap;html=1;align=center;" vertex="1" parent="1">
          <mxGeometry x="1740" y="368" width="100" height="40" as="geometry" />
        </mxCell>
        <mxCell id="2SUrX7hE4mHxBvQzwb3O-131" value="precioUnitario" style="ellipse;shape=doubleEllipse;margin=3;whiteSpace=wrap;html=1;align=center;" vertex="1" parent="1">
          <mxGeometry x="1819" y="335" width="100" height="40" as="geometry" />
        </mxCell>
        <mxCell id="2SUrX7hE4mHxBvQzwb3O-132" value="" style="endArrow=none;html=1;rounded=0;exitX=1;exitY=0.5;exitDx=0;exitDy=0;entryX=0;entryY=1;entryDx=0;entryDy=0;" edge="1" parent="1" source="2SUrX7hE4mHxBvQzwb3O-124" target="2SUrX7hE4mHxBvQzwb3O-133">
          <mxGeometry relative="1" as="geometry">
            <mxPoint x="2139" y="469.6" as="sourcePoint" />
            <mxPoint x="2299" y="469.6" as="targetPoint" />
          </mxGeometry>
        </mxCell>
        <mxCell id="2SUrX7hE4mHxBvQzwb3O-133" value="día" style="ellipse;whiteSpace=wrap;html=1;align=center;" vertex="1" parent="1">
          <mxGeometry x="2169" y="412.5" width="60" height="35" as="geometry" />
        </mxCell>
        <mxCell id="2SUrX7hE4mHxBvQzwb3O-134" value="mes" style="ellipse;whiteSpace=wrap;html=1;align=center;" vertex="1" parent="1">
          <mxGeometry x="2209" y="456.5" width="60" height="35" as="geometry" />
        </mxCell>
        <mxCell id="2SUrX7hE4mHxBvQzwb3O-135" value="año" style="ellipse;whiteSpace=wrap;html=1;align=center;" vertex="1" parent="1">
          <mxGeometry x="2169" y="495" width="60" height="35" as="geometry" />
        </mxCell>
        <mxCell id="2SUrX7hE4mHxBvQzwb3O-136" value="" style="endArrow=none;html=1;rounded=0;exitX=1;exitY=0.5;exitDx=0;exitDy=0;entryX=0;entryY=0.5;entryDx=0;entryDy=0;" edge="1" parent="1" source="2SUrX7hE4mHxBvQzwb3O-124" target="2SUrX7hE4mHxBvQzwb3O-134">
          <mxGeometry relative="1" as="geometry">
            <mxPoint x="2139" y="480" as="sourcePoint" />
            <mxPoint x="2299" y="480" as="targetPoint" />
          </mxGeometry>
        </mxCell>
        <mxCell id="2SUrX7hE4mHxBvQzwb3O-137" value="" style="endArrow=none;html=1;rounded=0;exitX=1;exitY=0.5;exitDx=0;exitDy=0;entryX=0;entryY=0;entryDx=0;entryDy=0;" edge="1" parent="1" source="2SUrX7hE4mHxBvQzwb3O-124" target="2SUrX7hE4mHxBvQzwb3O-135">
          <mxGeometry relative="1" as="geometry">
            <mxPoint x="2139" y="490" as="sourcePoint" />
            <mxPoint x="2299" y="490" as="targetPoint" />
          </mxGeometry>
        </mxCell>
        <mxCell id="2SUrX7hE4mHxBvQzwb3O-138" value="día" style="ellipse;whiteSpace=wrap;html=1;align=center;" vertex="1" parent="1">
          <mxGeometry x="1689" y="517.5" width="60" height="35" as="geometry" />
        </mxCell>
        <mxCell id="2SUrX7hE4mHxBvQzwb3O-139" value="mes" style="ellipse;whiteSpace=wrap;html=1;align=center;" vertex="1" parent="1">
          <mxGeometry x="1729" y="560" width="60" height="35" as="geometry" />
        </mxCell>
        <mxCell id="2SUrX7hE4mHxBvQzwb3O-140" value="año" style="ellipse;whiteSpace=wrap;html=1;align=center;" vertex="1" parent="1">
          <mxGeometry x="1809" y="574.5" width="60" height="35" as="geometry" />
        </mxCell>
        <mxCell id="2SUrX7hE4mHxBvQzwb3O-141" value="" style="endArrow=none;html=1;rounded=0;exitX=1;exitY=0.5;exitDx=0;exitDy=0;entryX=0;entryY=0.5;entryDx=0;entryDy=0;" edge="1" parent="1" source="2SUrX7hE4mHxBvQzwb3O-138" target="2SUrX7hE4mHxBvQzwb3O-126">
          <mxGeometry relative="1" as="geometry">
            <mxPoint x="1779" y="550" as="sourcePoint" />
            <mxPoint x="1939" y="550" as="targetPoint" />
          </mxGeometry>
        </mxCell>
        <mxCell id="2SUrX7hE4mHxBvQzwb3O-142" value="" style="endArrow=none;html=1;rounded=0;exitX=0.702;exitY=0.071;exitDx=0;exitDy=0;exitPerimeter=0;entryX=0;entryY=1;entryDx=0;entryDy=0;" edge="1" parent="1" source="2SUrX7hE4mHxBvQzwb3O-139" target="2SUrX7hE4mHxBvQzwb3O-126">
          <mxGeometry relative="1" as="geometry">
            <mxPoint x="1789" y="560" as="sourcePoint" />
            <mxPoint x="1949" y="560" as="targetPoint" />
          </mxGeometry>
        </mxCell>
        <mxCell id="2SUrX7hE4mHxBvQzwb3O-143" value="" style="endArrow=none;html=1;rounded=0;exitX=0.5;exitY=1;exitDx=0;exitDy=0;entryX=0.5;entryY=0;entryDx=0;entryDy=0;" edge="1" parent="1" source="2SUrX7hE4mHxBvQzwb3O-126" target="2SUrX7hE4mHxBvQzwb3O-140">
          <mxGeometry relative="1" as="geometry">
            <mxPoint x="1809" y="560" as="sourcePoint" />
            <mxPoint x="1969" y="560" as="targetPoint" />
          </mxGeometry>
        </mxCell>
        <mxCell id="2SUrX7hE4mHxBvQzwb3O-144" value="" style="endArrow=none;html=1;rounded=0;exitX=0.5;exitY=0;exitDx=0;exitDy=0;entryX=0.5;entryY=1;entryDx=0;entryDy=0;" edge="1" parent="1" source="2SUrX7hE4mHxBvQzwb3O-4" target="2SUrX7hE4mHxBvQzwb3O-131">
          <mxGeometry relative="1" as="geometry">
            <mxPoint x="1929" y="420" as="sourcePoint" />
            <mxPoint x="2089" y="420" as="targetPoint" />
          </mxGeometry>
        </mxCell>
        <mxCell id="2SUrX7hE4mHxBvQzwb3O-145" value="" style="endArrow=none;html=1;rounded=0;exitX=0.75;exitY=0;exitDx=0;exitDy=0;entryX=0;entryY=1;entryDx=0;entryDy=0;" edge="1" parent="1" source="2SUrX7hE4mHxBvQzwb3O-4" target="2SUrX7hE4mHxBvQzwb3O-122">
          <mxGeometry relative="1" as="geometry">
            <mxPoint x="1959" y="440" as="sourcePoint" />
            <mxPoint x="1959" y="370" as="targetPoint" />
          </mxGeometry>
        </mxCell>
        <mxCell id="2SUrX7hE4mHxBvQzwb3O-146" value="" style="endArrow=none;html=1;rounded=0;exitX=1;exitY=0;exitDx=0;exitDy=0;entryX=0;entryY=0.5;entryDx=0;entryDy=0;" edge="1" parent="1" source="2SUrX7hE4mHxBvQzwb3O-4" target="2SUrX7hE4mHxBvQzwb3O-123">
          <mxGeometry relative="1" as="geometry">
            <mxPoint x="1985" y="448" as="sourcePoint" />
            <mxPoint x="2025" y="392" as="targetPoint" />
          </mxGeometry>
        </mxCell>
        <mxCell id="2SUrX7hE4mHxBvQzwb3O-147" value="" style="endArrow=none;html=1;rounded=0;exitX=1;exitY=1;exitDx=0;exitDy=0;entryX=0.25;entryY=0;entryDx=0;entryDy=0;" edge="1" parent="1" source="2SUrX7hE4mHxBvQzwb3O-130" target="2SUrX7hE4mHxBvQzwb3O-4">
          <mxGeometry relative="1" as="geometry">
            <mxPoint x="1869" y="400" as="sourcePoint" />
            <mxPoint x="2029" y="400" as="targetPoint" />
          </mxGeometry>
        </mxCell>
        <mxCell id="2SUrX7hE4mHxBvQzwb3O-148" value="" style="endArrow=none;html=1;rounded=0;exitX=1;exitY=0.5;exitDx=0;exitDy=0;entryX=0;entryY=0;entryDx=0;entryDy=0;" edge="1" parent="1" source="2SUrX7hE4mHxBvQzwb3O-128" target="2SUrX7hE4mHxBvQzwb3O-4">
          <mxGeometry relative="1" as="geometry">
            <mxPoint x="1839" y="420" as="sourcePoint" />
            <mxPoint x="1999" y="420" as="targetPoint" />
          </mxGeometry>
        </mxCell>
        <mxCell id="2SUrX7hE4mHxBvQzwb3O-149" value="" style="endArrow=none;html=1;rounded=0;exitX=1;exitY=0.5;exitDx=0;exitDy=0;entryX=0;entryY=1;entryDx=0;entryDy=0;" edge="1" parent="1" source="2SUrX7hE4mHxBvQzwb3O-127" target="2SUrX7hE4mHxBvQzwb3O-4">
          <mxGeometry relative="1" as="geometry">
            <mxPoint x="1849" y="490" as="sourcePoint" />
            <mxPoint x="2009" y="490" as="targetPoint" />
          </mxGeometry>
        </mxCell>
        <mxCell id="2SUrX7hE4mHxBvQzwb3O-150" value="" style="endArrow=none;html=1;rounded=0;exitX=0.5;exitY=0;exitDx=0;exitDy=0;entryX=0.25;entryY=1;entryDx=0;entryDy=0;" edge="1" parent="1" source="2SUrX7hE4mHxBvQzwb3O-126" target="2SUrX7hE4mHxBvQzwb3O-4">
          <mxGeometry relative="1" as="geometry">
            <mxPoint x="1869" y="510" as="sourcePoint" />
            <mxPoint x="2029" y="510" as="targetPoint" />
          </mxGeometry>
        </mxCell>
        <mxCell id="2SUrX7hE4mHxBvQzwb3O-151" value="" style="endArrow=none;html=1;rounded=0;entryX=0.75;entryY=1;entryDx=0;entryDy=0;exitX=0.372;exitY=0.011;exitDx=0;exitDy=0;exitPerimeter=0;" edge="1" parent="1" source="2SUrX7hE4mHxBvQzwb3O-125" target="2SUrX7hE4mHxBvQzwb3O-4">
          <mxGeometry relative="1" as="geometry">
            <mxPoint x="1939" y="520" as="sourcePoint" />
            <mxPoint x="2099" y="500" as="targetPoint" />
          </mxGeometry>
        </mxCell>
        <mxCell id="2SUrX7hE4mHxBvQzwb3O-152" value="" style="endArrow=none;html=1;rounded=0;exitX=1;exitY=1;exitDx=0;exitDy=0;" edge="1" parent="1" source="2SUrX7hE4mHxBvQzwb3O-4" target="2SUrX7hE4mHxBvQzwb3O-129">
          <mxGeometry relative="1" as="geometry">
            <mxPoint x="1959" y="490" as="sourcePoint" />
            <mxPoint x="2119" y="490" as="targetPoint" />
          </mxGeometry>
        </mxCell>
        <mxCell id="2SUrX7hE4mHxBvQzwb3O-153" value="" style="endArrow=none;html=1;rounded=0;exitX=1;exitY=0.5;exitDx=0;exitDy=0;entryX=0;entryY=0.5;entryDx=0;entryDy=0;" edge="1" parent="1" source="2SUrX7hE4mHxBvQzwb3O-4" target="2SUrX7hE4mHxBvQzwb3O-124">
          <mxGeometry relative="1" as="geometry">
            <mxPoint x="1989" y="460" as="sourcePoint" />
            <mxPoint x="2149" y="460" as="targetPoint" />
          </mxGeometry>
        </mxCell>
        <mxCell id="2SUrX7hE4mHxBvQzwb3O-154" value="1" style="text;html=1;align=center;verticalAlign=middle;whiteSpace=wrap;rounded=0;" vertex="1" parent="1">
          <mxGeometry x="1180" y="609.5" width="60" height="30" as="geometry" />
        </mxCell>
        <mxCell id="2SUrX7hE4mHxBvQzwb3O-156" value="codigoProducto" style="ellipse;whiteSpace=wrap;html=1;align=center;fontStyle=4;" vertex="1" parent="1">
          <mxGeometry x="2357.5" y="-12" width="100" height="40" as="geometry" />
        </mxCell>
        <mxCell id="2SUrX7hE4mHxBvQzwb3O-157" value="estadoProducto" style="ellipse;whiteSpace=wrap;html=1;align=center;" vertex="1" parent="1">
          <mxGeometry x="2300.5" y="78" width="100" height="40" as="geometry" />
        </mxCell>
        <mxCell id="2SUrX7hE4mHxBvQzwb3O-158" value="descripciónProducto" style="ellipse;whiteSpace=wrap;html=1;align=center;" vertex="1" parent="1">
          <mxGeometry x="2405.5" y="120" width="119" height="40" as="geometry" />
        </mxCell>
        <mxCell id="2SUrX7hE4mHxBvQzwb3O-159" value="cantidadProducto" style="ellipse;whiteSpace=wrap;html=1;align=center;" vertex="1" parent="1">
          <mxGeometry x="2550" y="120" width="100" height="40" as="geometry" />
        </mxCell>
        <mxCell id="2SUrX7hE4mHxBvQzwb3O-160" value="categoríaProducto" style="ellipse;whiteSpace=wrap;html=1;align=center;" vertex="1" parent="1">
          <mxGeometry x="2620" y="40" width="100" height="40" as="geometry" />
        </mxCell>
        <mxCell id="2SUrX7hE4mHxBvQzwb3O-161" value="precioProducto" style="ellipse;whiteSpace=wrap;html=1;align=center;" vertex="1" parent="1">
          <mxGeometry x="2580" y="-12" width="100" height="40" as="geometry" />
        </mxCell>
        <mxCell id="2SUrX7hE4mHxBvQzwb3O-162" value="nombreProducto" style="ellipse;whiteSpace=wrap;html=1;align=center;" vertex="1" parent="1">
          <mxGeometry x="2457.5" y="-37" width="100" height="40" as="geometry" />
        </mxCell>
        <mxCell id="2SUrX7hE4mHxBvQzwb3O-163" value="" style="endArrow=none;html=1;rounded=0;exitX=0.25;exitY=0;exitDx=0;exitDy=0;entryX=1;entryY=1;entryDx=0;entryDy=0;" edge="1" parent="1" source="2SUrX7hE4mHxBvQzwb3O-5" target="2SUrX7hE4mHxBvQzwb3O-156">
          <mxGeometry relative="1" as="geometry">
            <mxPoint x="2470.5" y="18" as="sourcePoint" />
            <mxPoint x="2630.5" y="18" as="targetPoint" />
          </mxGeometry>
        </mxCell>
        <mxCell id="2SUrX7hE4mHxBvQzwb3O-164" value="" style="endArrow=none;html=1;rounded=0;exitX=0.5;exitY=0;exitDx=0;exitDy=0;entryX=0.5;entryY=1;entryDx=0;entryDy=0;" edge="1" parent="1" source="2SUrX7hE4mHxBvQzwb3O-5" target="2SUrX7hE4mHxBvQzwb3O-162">
          <mxGeometry relative="1" as="geometry">
            <mxPoint x="2530.5" y="28" as="sourcePoint" />
            <mxPoint x="2690.5" y="28" as="targetPoint" />
          </mxGeometry>
        </mxCell>
        <mxCell id="2SUrX7hE4mHxBvQzwb3O-165" value="caracte&lt;span style=&quot;color: rgba(0, 0, 0, 0); font-family: monospace; font-size: 0px; text-align: start; text-wrap-mode: nowrap;&quot;&gt;%3CmxGraphModel%3E%3Croot%3E%3CmxCell%20id%3D%220%22%2F%3E%3CmxCell%20id%3D%221%22%20parent%3D%220%22%2F%3E%3CmxCell%20id%3D%222%22%20value%3D%221%22%20style%3D%22text%3Bhtml%3D1%3Balign%3Dcenter%3BverticalAlign%3Dmiddle%3BwhiteSpace%3Dwrap%3Brounded%3D0%3B%22%20vertex%3D%221%22%20parent%3D%221%22%3E%3CmxGeometry%20x%3D%221500%22%20y%3D%22430%22%20width%3D%2260%22%20height%3D%2230%22%20as%3D%22geometry%22%2F%3E%3C%2FmxCell%3E%3C%2Froot%3E%3C%2FmxGraphModel%3E&lt;/span&gt;rísticas" style="ellipse;whiteSpace=wrap;html=1;align=center;" vertex="1" parent="1">
          <mxGeometry x="2277.5" y="153" width="90" height="30" as="geometry" />
        </mxCell>
        <mxCell id="2SUrX7hE4mHxBvQzwb3O-166" value="materiales" style="ellipse;whiteSpace=wrap;html=1;align=center;" vertex="1" parent="1">
          <mxGeometry x="2377.5" y="190" width="80" height="30" as="geometry" />
        </mxCell>
        <mxCell id="2SUrX7hE4mHxBvQzwb3O-167" value="beneficios" style="ellipse;whiteSpace=wrap;html=1;align=center;" vertex="1" parent="1">
          <mxGeometry x="2484.5" y="190" width="73" height="30" as="geometry" />
        </mxCell>
        <mxCell id="2SUrX7hE4mHxBvQzwb3O-168" value="" style="endArrow=none;html=1;rounded=0;exitX=1;exitY=0.5;exitDx=0;exitDy=0;" edge="1" parent="1" source="2SUrX7hE4mHxBvQzwb3O-165" target="2SUrX7hE4mHxBvQzwb3O-158">
          <mxGeometry relative="1" as="geometry">
            <mxPoint x="2380.5" y="178" as="sourcePoint" />
            <mxPoint x="2540.5" y="178" as="targetPoint" />
          </mxGeometry>
        </mxCell>
        <mxCell id="2SUrX7hE4mHxBvQzwb3O-169" value="" style="endArrow=none;html=1;rounded=0;exitX=0.5;exitY=0;exitDx=0;exitDy=0;entryX=0.5;entryY=1;entryDx=0;entryDy=0;" edge="1" parent="1" source="2SUrX7hE4mHxBvQzwb3O-166" target="2SUrX7hE4mHxBvQzwb3O-158">
          <mxGeometry relative="1" as="geometry">
            <mxPoint x="2380.5" y="188" as="sourcePoint" />
            <mxPoint x="2540.5" y="188" as="targetPoint" />
          </mxGeometry>
        </mxCell>
        <mxCell id="2SUrX7hE4mHxBvQzwb3O-170" value="" style="endArrow=none;html=1;rounded=0;exitX=0.5;exitY=0;exitDx=0;exitDy=0;entryX=0.5;entryY=1;entryDx=0;entryDy=0;" edge="1" parent="1" source="2SUrX7hE4mHxBvQzwb3O-167" target="2SUrX7hE4mHxBvQzwb3O-158">
          <mxGeometry relative="1" as="geometry">
            <mxPoint x="2470.5" y="188" as="sourcePoint" />
            <mxPoint x="2630.5" y="188" as="targetPoint" />
          </mxGeometry>
        </mxCell>
        <mxCell id="2SUrX7hE4mHxBvQzwb3O-171" value="" style="endArrow=none;html=1;rounded=0;exitX=0.951;exitY=0.303;exitDx=0;exitDy=0;entryX=0;entryY=1;entryDx=0;entryDy=0;exitPerimeter=0;" edge="1" parent="1" source="2SUrX7hE4mHxBvQzwb3O-157" target="2SUrX7hE4mHxBvQzwb3O-5">
          <mxGeometry relative="1" as="geometry">
            <mxPoint x="2450.5" y="98" as="sourcePoint" />
            <mxPoint x="2610.5" y="98" as="targetPoint" />
          </mxGeometry>
        </mxCell>
        <mxCell id="2SUrX7hE4mHxBvQzwb3O-172" value="" style="endArrow=none;html=1;rounded=0;exitX=0.5;exitY=0;exitDx=0;exitDy=0;entryX=0.25;entryY=1;entryDx=0;entryDy=0;" edge="1" parent="1" source="2SUrX7hE4mHxBvQzwb3O-158" target="2SUrX7hE4mHxBvQzwb3O-5">
          <mxGeometry relative="1" as="geometry">
            <mxPoint x="2450.5" y="108" as="sourcePoint" />
            <mxPoint x="2610.5" y="108" as="targetPoint" />
          </mxGeometry>
        </mxCell>
        <mxCell id="2SUrX7hE4mHxBvQzwb3O-173" value="" style="endArrow=none;html=1;rounded=0;exitX=0.75;exitY=1;exitDx=0;exitDy=0;entryX=0.474;entryY=-0.078;entryDx=0;entryDy=0;entryPerimeter=0;" edge="1" parent="1" source="2SUrX7hE4mHxBvQzwb3O-5" target="2SUrX7hE4mHxBvQzwb3O-159">
          <mxGeometry relative="1" as="geometry">
            <mxPoint x="2520.5" y="98" as="sourcePoint" />
            <mxPoint x="2680.5" y="98" as="targetPoint" />
          </mxGeometry>
        </mxCell>
        <mxCell id="2SUrX7hE4mHxBvQzwb3O-174" value="" style="endArrow=none;html=1;rounded=0;exitX=1;exitY=0.5;exitDx=0;exitDy=0;entryX=0;entryY=0.5;entryDx=0;entryDy=0;" edge="1" parent="1" source="2SUrX7hE4mHxBvQzwb3O-5" target="2SUrX7hE4mHxBvQzwb3O-160">
          <mxGeometry relative="1" as="geometry">
            <mxPoint x="2560.5" y="78" as="sourcePoint" />
            <mxPoint x="2720.5" y="78" as="targetPoint" />
          </mxGeometry>
        </mxCell>
        <mxCell id="2SUrX7hE4mHxBvQzwb3O-175" value="" style="endArrow=none;html=1;rounded=0;exitX=1;exitY=0;exitDx=0;exitDy=0;" edge="1" parent="1" source="2SUrX7hE4mHxBvQzwb3O-5" target="2SUrX7hE4mHxBvQzwb3O-161">
          <mxGeometry relative="1" as="geometry">
            <mxPoint x="2580.5" y="58" as="sourcePoint" />
            <mxPoint x="2740.5" y="58" as="targetPoint" />
          </mxGeometry>
        </mxCell>
        <mxCell id="2SUrX7hE4mHxBvQzwb3O-176" value="1" style="text;html=1;align=center;verticalAlign=middle;whiteSpace=wrap;rounded=0;" vertex="1" parent="1">
          <mxGeometry x="2169" y="18" width="60" height="30" as="geometry" />
        </mxCell>
        <mxCell id="2SUrX7hE4mHxBvQzwb3O-177" value="n" style="text;html=1;align=center;verticalAlign=middle;whiteSpace=wrap;rounded=0;" vertex="1" parent="1">
          <mxGeometry x="2277.5" y="18" width="60" height="30" as="geometry" />
        </mxCell>
        <mxCell id="2SUrX7hE4mHxBvQzwb3O-178" value="codigoStock" style="ellipse;whiteSpace=wrap;html=1;align=center;fontStyle=4;" vertex="1" parent="1">
          <mxGeometry x="2026.5" y="123" width="100" height="40" as="geometry" />
        </mxCell>
        <mxCell id="2SUrX7hE4mHxBvQzwb3O-179" value="idProducto" style="ellipse;whiteSpace=wrap;html=1;align=center;" vertex="1" parent="1">
          <mxGeometry x="1880.5" y="-42" width="100" height="40" as="geometry" />
        </mxCell>
        <mxCell id="2SUrX7hE4mHxBvQzwb3O-180" value="fechaEntradaProducto" style="ellipse;whiteSpace=wrap;html=1;align=center;" vertex="1" parent="1">
          <mxGeometry x="1750.5" y="-22" width="130" height="40" as="geometry" />
        </mxCell>
        <mxCell id="2SUrX7hE4mHxBvQzwb3O-181" value="estadoProductos" style="ellipse;whiteSpace=wrap;html=1;align=center;" vertex="1" parent="1">
          <mxGeometry x="1720.5" y="28" width="100" height="40" as="geometry" />
        </mxCell>
        <mxCell id="2SUrX7hE4mHxBvQzwb3O-182" value="fechaSalidaProducto" style="ellipse;whiteSpace=wrap;html=1;align=center;" vertex="1" parent="1">
          <mxGeometry x="1728" y="98" width="124" height="40" as="geometry" />
        </mxCell>
        <mxCell id="2SUrX7hE4mHxBvQzwb3O-185" value="estadoStock" style="ellipse;whiteSpace=wrap;html=1;align=center;" vertex="1" parent="1">
          <mxGeometry x="2039" y="68" width="100" height="40" as="geometry" />
        </mxCell>
        <mxCell id="2SUrX7hE4mHxBvQzwb3O-187" value="" style="endArrow=none;html=1;rounded=0;exitX=0.5;exitY=0;exitDx=0;exitDy=0;entryX=0.5;entryY=1;entryDx=0;entryDy=0;" edge="1" parent="1" source="2SUrX7hE4mHxBvQzwb3O-6" target="2SUrX7hE4mHxBvQzwb3O-179">
          <mxGeometry relative="1" as="geometry">
            <mxPoint x="1930.5" y="18" as="sourcePoint" />
            <mxPoint x="2090.5" y="18" as="targetPoint" />
          </mxGeometry>
        </mxCell>
        <mxCell id="2SUrX7hE4mHxBvQzwb3O-188" value="" style="endArrow=none;html=1;rounded=0;exitX=0.905;exitY=0.822;exitDx=0;exitDy=0;exitPerimeter=0;entryX=0.25;entryY=0;entryDx=0;entryDy=0;" edge="1" parent="1" source="2SUrX7hE4mHxBvQzwb3O-180" target="2SUrX7hE4mHxBvQzwb3O-6">
          <mxGeometry relative="1" as="geometry">
            <mxPoint x="1860.5" y="18" as="sourcePoint" />
            <mxPoint x="2020.5" y="18" as="targetPoint" />
          </mxGeometry>
        </mxCell>
        <mxCell id="2SUrX7hE4mHxBvQzwb3O-189" value="" style="endArrow=none;html=1;rounded=0;exitX=1;exitY=0.5;exitDx=0;exitDy=0;entryX=0;entryY=0.5;entryDx=0;entryDy=0;" edge="1" parent="1" source="2SUrX7hE4mHxBvQzwb3O-181" target="2SUrX7hE4mHxBvQzwb3O-6">
          <mxGeometry relative="1" as="geometry">
            <mxPoint x="1830.5" y="48" as="sourcePoint" />
            <mxPoint x="1990.5" y="48" as="targetPoint" />
          </mxGeometry>
        </mxCell>
        <mxCell id="2SUrX7hE4mHxBvQzwb3O-190" value="" style="endArrow=none;html=1;rounded=0;exitX=0.899;exitY=0.141;exitDx=0;exitDy=0;exitPerimeter=0;entryX=0;entryY=1;entryDx=0;entryDy=0;" edge="1" parent="1" source="2SUrX7hE4mHxBvQzwb3O-182" target="2SUrX7hE4mHxBvQzwb3O-6">
          <mxGeometry relative="1" as="geometry">
            <mxPoint x="1840.5" y="88" as="sourcePoint" />
            <mxPoint x="2000.5" y="88" as="targetPoint" />
          </mxGeometry>
        </mxCell>
        <mxCell id="2SUrX7hE4mHxBvQzwb3O-193" value="" style="endArrow=none;html=1;rounded=0;exitX=1;exitY=1;exitDx=0;exitDy=0;" edge="1" parent="1" source="2SUrX7hE4mHxBvQzwb3O-6" target="2SUrX7hE4mHxBvQzwb3O-185">
          <mxGeometry relative="1" as="geometry">
            <mxPoint x="1980.5" y="87.30999999999995" as="sourcePoint" />
            <mxPoint x="2140.5" y="87.30999999999995" as="targetPoint" />
          </mxGeometry>
        </mxCell>
        <mxCell id="2SUrX7hE4mHxBvQzwb3O-194" value="dia" style="ellipse;whiteSpace=wrap;html=1;align=center;" vertex="1" parent="1">
          <mxGeometry x="1790.5" y="-62" width="67" height="20" as="geometry" />
        </mxCell>
        <mxCell id="2SUrX7hE4mHxBvQzwb3O-195" value="mes" style="ellipse;whiteSpace=wrap;html=1;align=center;" vertex="1" parent="1">
          <mxGeometry x="1700" y="-57" width="67" height="20" as="geometry" />
        </mxCell>
        <mxCell id="2SUrX7hE4mHxBvQzwb3O-196" value="año" style="ellipse;whiteSpace=wrap;html=1;align=center;" vertex="1" parent="1">
          <mxGeometry x="1653.5" y="-22" width="67" height="20" as="geometry" />
        </mxCell>
        <mxCell id="2SUrX7hE4mHxBvQzwb3O-197" value="dia" style="ellipse;whiteSpace=wrap;html=1;align=center;" vertex="1" parent="1">
          <mxGeometry x="1640" y="108" width="67" height="20" as="geometry" />
        </mxCell>
        <mxCell id="2SUrX7hE4mHxBvQzwb3O-198" value="mes" style="ellipse;whiteSpace=wrap;html=1;align=center;" vertex="1" parent="1">
          <mxGeometry x="1650" y="153" width="67" height="20" as="geometry" />
        </mxCell>
        <mxCell id="2SUrX7hE4mHxBvQzwb3O-199" value="año" style="ellipse;whiteSpace=wrap;html=1;align=center;" vertex="1" parent="1">
          <mxGeometry x="1737" y="168" width="67" height="20" as="geometry" />
        </mxCell>
        <mxCell id="2SUrX7hE4mHxBvQzwb3O-200" style="edgeStyle=orthogonalEdgeStyle;rounded=0;orthogonalLoop=1;jettySize=auto;html=1;exitX=0.5;exitY=1;exitDx=0;exitDy=0;" edge="1" parent="1" source="2SUrX7hE4mHxBvQzwb3O-199" target="2SUrX7hE4mHxBvQzwb3O-199">
          <mxGeometry relative="1" as="geometry" />
        </mxCell>
        <mxCell id="2SUrX7hE4mHxBvQzwb3O-201" value="" style="endArrow=none;html=1;rounded=0;exitX=0.681;exitY=0.953;exitDx=0;exitDy=0;exitPerimeter=0;" edge="1" parent="1" source="2SUrX7hE4mHxBvQzwb3O-195" target="2SUrX7hE4mHxBvQzwb3O-180">
          <mxGeometry relative="1" as="geometry">
            <mxPoint x="1750.5" y="-22" as="sourcePoint" />
            <mxPoint x="1910.5" y="-22" as="targetPoint" />
          </mxGeometry>
        </mxCell>
        <mxCell id="2SUrX7hE4mHxBvQzwb3O-202" value="" style="endArrow=none;html=1;rounded=0;exitX=1;exitY=0.5;exitDx=0;exitDy=0;entryX=0.058;entryY=0.277;entryDx=0;entryDy=0;entryPerimeter=0;" edge="1" parent="1" source="2SUrX7hE4mHxBvQzwb3O-196" target="2SUrX7hE4mHxBvQzwb3O-180">
          <mxGeometry relative="1" as="geometry">
            <mxPoint x="1730.5" y="-12" as="sourcePoint" />
            <mxPoint x="1890.5" y="-12" as="targetPoint" />
          </mxGeometry>
        </mxCell>
        <mxCell id="2SUrX7hE4mHxBvQzwb3O-203" value="" style="endArrow=none;html=1;rounded=0;exitX=0.432;exitY=-0.02;exitDx=0;exitDy=0;exitPerimeter=0;entryX=0.5;entryY=1;entryDx=0;entryDy=0;" edge="1" parent="1" source="2SUrX7hE4mHxBvQzwb3O-180" target="2SUrX7hE4mHxBvQzwb3O-194">
          <mxGeometry relative="1" as="geometry">
            <mxPoint x="1800.5" y="-32" as="sourcePoint" />
            <mxPoint x="1960.5" y="-32" as="targetPoint" />
          </mxGeometry>
        </mxCell>
        <mxCell id="2SUrX7hE4mHxBvQzwb3O-205" value="" style="endArrow=none;html=1;rounded=0;entryX=0;entryY=1;entryDx=0;entryDy=0;exitX=1;exitY=0;exitDx=0;exitDy=0;" edge="1" parent="1" source="2SUrX7hE4mHxBvQzwb3O-198" target="2SUrX7hE4mHxBvQzwb3O-182">
          <mxGeometry relative="1" as="geometry">
            <mxPoint x="1680.5" y="128" as="sourcePoint" />
            <mxPoint x="1738.5" y="104" as="targetPoint" />
          </mxGeometry>
        </mxCell>
        <mxCell id="2SUrX7hE4mHxBvQzwb3O-206" value="" style="endArrow=none;html=1;rounded=0;exitX=0.5;exitY=0;exitDx=0;exitDy=0;entryX=0.362;entryY=0.995;entryDx=0;entryDy=0;entryPerimeter=0;" edge="1" parent="1" source="2SUrX7hE4mHxBvQzwb3O-199" target="2SUrX7hE4mHxBvQzwb3O-182">
          <mxGeometry relative="1" as="geometry">
            <mxPoint x="1720.5" y="138" as="sourcePoint" />
            <mxPoint x="1880.5" y="138" as="targetPoint" />
          </mxGeometry>
        </mxCell>
        <mxCell id="2SUrX7hE4mHxBvQzwb3O-207" value="" style="endArrow=none;html=1;rounded=0;exitX=1;exitY=0;exitDx=0;exitDy=0;entryX=0.5;entryY=1;entryDx=0;entryDy=0;" edge="1" parent="1" source="2SUrX7hE4mHxBvQzwb3O-77" target="2SUrX7hE4mHxBvQzwb3O-95">
          <mxGeometry relative="1" as="geometry">
            <mxPoint x="1290" y="350" as="sourcePoint" />
            <mxPoint x="1330" y="320" as="targetPoint" />
          </mxGeometry>
        </mxCell>
        <mxCell id="2SUrX7hE4mHxBvQzwb3O-208" value="" style="endArrow=none;html=1;rounded=0;exitX=1;exitY=0;exitDx=0;exitDy=0;entryX=0;entryY=0.5;entryDx=0;entryDy=0;" edge="1" parent="1" source="2SUrX7hE4mHxBvQzwb3O-77" target="2SUrX7hE4mHxBvQzwb3O-97">
          <mxGeometry relative="1" as="geometry">
            <mxPoint x="1350" y="360" as="sourcePoint" />
            <mxPoint x="1510" y="360" as="targetPoint" />
          </mxGeometry>
        </mxCell>
        <mxCell id="2SUrX7hE4mHxBvQzwb3O-209" value="" style="endArrow=none;html=1;rounded=0;exitX=1;exitY=0.5;exitDx=0;exitDy=0;entryX=0;entryY=0.5;entryDx=0;entryDy=0;" edge="1" parent="1" source="2SUrX7hE4mHxBvQzwb3O-77" target="2SUrX7hE4mHxBvQzwb3O-98">
          <mxGeometry relative="1" as="geometry">
            <mxPoint x="1350" y="360" as="sourcePoint" />
            <mxPoint x="1510" y="360" as="targetPoint" />
          </mxGeometry>
        </mxCell>
        <mxCell id="2SUrX7hE4mHxBvQzwb3O-210" value="" style="endArrow=none;html=1;rounded=0;exitX=1;exitY=0.5;exitDx=0;exitDy=0;entryX=0;entryY=0.5;entryDx=0;entryDy=0;" edge="1" parent="1" source="2SUrX7hE4mHxBvQzwb3O-77" target="2SUrX7hE4mHxBvQzwb3O-94">
          <mxGeometry relative="1" as="geometry">
            <mxPoint x="1350" y="360" as="sourcePoint" />
            <mxPoint x="1510" y="360" as="targetPoint" />
          </mxGeometry>
        </mxCell>
        <mxCell id="2SUrX7hE4mHxBvQzwb3O-211" value="direcciónCliente" style="ellipse;whiteSpace=wrap;html=1;align=center;" vertex="1" parent="1">
          <mxGeometry x="522" y="530" width="100" height="40" as="geometry" />
        </mxCell>
        <mxCell id="2SUrX7hE4mHxBvQzwb3O-212" value="municipio" style="ellipse;whiteSpace=wrap;html=1;align=center;" vertex="1" parent="1">
          <mxGeometry x="520" y="595" width="64" height="25" as="geometry" />
        </mxCell>
        <mxCell id="2SUrX7hE4mHxBvQzwb3O-213" value="ciudad" style="ellipse;whiteSpace=wrap;html=1;align=center;" vertex="1" parent="1">
          <mxGeometry x="659" y="540" width="71" height="25" as="geometry" />
        </mxCell>
        <mxCell id="2SUrX7hE4mHxBvQzwb3O-214" value="calle" style="ellipse;whiteSpace=wrap;html=1;align=center;" vertex="1" parent="1">
          <mxGeometry x="654.5" y="574.5" width="65.5" height="25.5" as="geometry" />
        </mxCell>
        <mxCell id="2SUrX7hE4mHxBvQzwb3O-215" value="carrera" style="ellipse;whiteSpace=wrap;html=1;align=center;" vertex="1" parent="1">
          <mxGeometry x="599" y="595" width="59" height="25" as="geometry" />
        </mxCell>
        <mxCell id="2SUrX7hE4mHxBvQzwb3O-216" value="" style="endArrow=none;html=1;rounded=0;exitX=1;exitY=0.5;exitDx=0;exitDy=0;entryX=0;entryY=0.5;entryDx=0;entryDy=0;" edge="1" parent="1" source="2SUrX7hE4mHxBvQzwb3O-211" target="2SUrX7hE4mHxBvQzwb3O-213">
          <mxGeometry relative="1" as="geometry">
            <mxPoint x="623" y="605" as="sourcePoint" />
            <mxPoint x="663" y="575" as="targetPoint" />
          </mxGeometry>
        </mxCell>
        <mxCell id="2SUrX7hE4mHxBvQzwb3O-217" value="" style="endArrow=none;html=1;rounded=0;exitX=1;exitY=0.5;exitDx=0;exitDy=0;entryX=0;entryY=0.5;entryDx=0;entryDy=0;" edge="1" parent="1" source="2SUrX7hE4mHxBvQzwb3O-211" target="2SUrX7hE4mHxBvQzwb3O-214">
          <mxGeometry relative="1" as="geometry">
            <mxPoint x="683" y="615" as="sourcePoint" />
            <mxPoint x="843" y="615" as="targetPoint" />
          </mxGeometry>
        </mxCell>
        <mxCell id="2SUrX7hE4mHxBvQzwb3O-218" value="" style="endArrow=none;html=1;rounded=0;exitX=0.5;exitY=1;exitDx=0;exitDy=0;entryX=0;entryY=0;entryDx=0;entryDy=0;" edge="1" parent="1" source="2SUrX7hE4mHxBvQzwb3O-211" target="2SUrX7hE4mHxBvQzwb3O-215">
          <mxGeometry relative="1" as="geometry">
            <mxPoint x="683" y="615" as="sourcePoint" />
            <mxPoint x="843" y="615" as="targetPoint" />
          </mxGeometry>
        </mxCell>
        <mxCell id="2SUrX7hE4mHxBvQzwb3O-219" value="" style="endArrow=none;html=1;rounded=0;" edge="1" parent="1" target="2SUrX7hE4mHxBvQzwb3O-212">
          <mxGeometry relative="1" as="geometry">
            <mxPoint x="572" y="570" as="sourcePoint" />
            <mxPoint x="843" y="615" as="targetPoint" />
          </mxGeometry>
        </mxCell>
        <mxCell id="2SUrX7hE4mHxBvQzwb3O-220" value="" style="endArrow=none;html=1;rounded=0;exitX=0.5;exitY=0;exitDx=0;exitDy=0;entryX=0.5;entryY=1;entryDx=0;entryDy=0;" edge="1" parent="1" source="2SUrX7hE4mHxBvQzwb3O-211" target="2SUrX7hE4mHxBvQzwb3O-2">
          <mxGeometry relative="1" as="geometry">
            <mxPoint x="470" y="535" as="sourcePoint" />
            <mxPoint x="529" y="490" as="targetPoint" />
          </mxGeometry>
        </mxCell>
        <mxCell id="2SUrX7hE4mHxBvQzwb3O-222" value="" style="endArrow=none;html=1;rounded=0;entryX=0.5;entryY=0;entryDx=0;entryDy=0;" edge="1" parent="1" source="2SUrX7hE4mHxBvQzwb3O-12" target="2SUrX7hE4mHxBvQzwb3O-3">
          <mxGeometry relative="1" as="geometry">
            <mxPoint x="1186" y="120" as="sourcePoint" />
            <mxPoint x="1220" y="270" as="targetPoint" />
          </mxGeometry>
        </mxCell>
        <mxCell id="2SUrX7hE4mHxBvQzwb3O-224" value="" style="endArrow=none;html=1;rounded=0;entryX=0.5;entryY=0;entryDx=0;entryDy=0;exitX=0.5;exitY=1;exitDx=0;exitDy=0;" edge="1" parent="1" source="2SUrX7hE4mHxBvQzwb3O-1" target="2SUrX7hE4mHxBvQzwb3O-12">
          <mxGeometry relative="1" as="geometry">
            <mxPoint x="1186" y="120" as="sourcePoint" />
            <mxPoint x="1186" y="440" as="targetPoint" />
          </mxGeometry>
        </mxCell>
        <mxCell id="2SUrX7hE4mHxBvQzwb3O-12" value="Genera" style="shape=rhombus;perimeter=rhombusPerimeter;whiteSpace=wrap;html=1;align=center;" vertex="1" parent="1">
          <mxGeometry x="1126" y="240" width="120" height="60" as="geometry" />
        </mxCell>
        <mxCell id="2SUrX7hE4mHxBvQzwb3O-226" value="municipio" style="ellipse;whiteSpace=wrap;html=1;align=center;" vertex="1" parent="1">
          <mxGeometry x="1236" y="-90" width="80" height="30" as="geometry" />
        </mxCell>
        <mxCell id="2SUrX7hE4mHxBvQzwb3O-227" value="ciudad" style="ellipse;whiteSpace=wrap;html=1;align=center;" vertex="1" parent="1">
          <mxGeometry x="1328" y="-80" width="80" height="30" as="geometry" />
        </mxCell>
        <mxCell id="2SUrX7hE4mHxBvQzwb3O-228" value="calle" style="ellipse;whiteSpace=wrap;html=1;align=center;" vertex="1" parent="1">
          <mxGeometry x="1399" y="-50" width="80" height="30" as="geometry" />
        </mxCell>
        <mxCell id="2SUrX7hE4mHxBvQzwb3O-229" value="carrera" style="ellipse;whiteSpace=wrap;html=1;align=center;" vertex="1" parent="1">
          <mxGeometry x="1419" y="-5" width="80" height="30" as="geometry" />
        </mxCell>
        <mxCell id="2SUrX7hE4mHxBvQzwb3O-232" value="" style="endArrow=none;html=1;rounded=0;exitX=0.5;exitY=0;exitDx=0;exitDy=0;entryX=0.5;entryY=1;entryDx=0;entryDy=0;" edge="1" parent="1" source="2SUrX7hE4mHxBvQzwb3O-24" target="2SUrX7hE4mHxBvQzwb3O-226">
          <mxGeometry relative="1" as="geometry">
            <mxPoint x="1329" as="sourcePoint" />
            <mxPoint x="1489" as="targetPoint" />
          </mxGeometry>
        </mxCell>
        <mxCell id="2SUrX7hE4mHxBvQzwb3O-233" value="" style="endArrow=none;html=1;rounded=0;exitX=0.5;exitY=0;exitDx=0;exitDy=0;entryX=0;entryY=1;entryDx=0;entryDy=0;" edge="1" parent="1" source="2SUrX7hE4mHxBvQzwb3O-24" target="2SUrX7hE4mHxBvQzwb3O-227">
          <mxGeometry relative="1" as="geometry">
            <mxPoint x="1329" as="sourcePoint" />
            <mxPoint x="1489" as="targetPoint" />
          </mxGeometry>
        </mxCell>
        <mxCell id="2SUrX7hE4mHxBvQzwb3O-234" value="" style="endArrow=none;html=1;rounded=0;exitX=1;exitY=0.5;exitDx=0;exitDy=0;entryX=0;entryY=0.5;entryDx=0;entryDy=0;" edge="1" parent="1" source="2SUrX7hE4mHxBvQzwb3O-24" target="2SUrX7hE4mHxBvQzwb3O-228">
          <mxGeometry relative="1" as="geometry">
            <mxPoint x="1329" as="sourcePoint" />
            <mxPoint x="1489" as="targetPoint" />
          </mxGeometry>
        </mxCell>
        <mxCell id="2SUrX7hE4mHxBvQzwb3O-235" value="" style="endArrow=none;html=1;rounded=0;exitX=1;exitY=0.5;exitDx=0;exitDy=0;entryX=0;entryY=0.5;entryDx=0;entryDy=0;" edge="1" parent="1" source="2SUrX7hE4mHxBvQzwb3O-24" target="2SUrX7hE4mHxBvQzwb3O-229">
          <mxGeometry relative="1" as="geometry">
            <mxPoint x="1329" as="sourcePoint" />
            <mxPoint x="1489" as="targetPoint" />
          </mxGeometry>
        </mxCell>
        <mxCell id="2SUrX7hE4mHxBvQzwb3O-236" value="tipoUsu" style="ellipse;whiteSpace=wrap;html=1;align=center;" vertex="1" parent="1">
          <mxGeometry x="1016" y="140" width="100" height="40" as="geometry" />
        </mxCell>
        <mxCell id="2SUrX7hE4mHxBvQzwb3O-237" value="" style="endArrow=none;html=1;rounded=0;entryX=0;entryY=1;entryDx=0;entryDy=0;" edge="1" parent="1" source="2SUrX7hE4mHxBvQzwb3O-236" target="2SUrX7hE4mHxBvQzwb3O-1">
          <mxGeometry relative="1" as="geometry">
            <mxPoint x="1089" y="90" as="sourcePoint" />
            <mxPoint x="1249" y="90" as="targetPoint" />
          </mxGeometry>
        </mxCell>
        <mxCell id="2SUrX7hE4mHxBvQzwb3O-241" value="iva" style="ellipse;whiteSpace=wrap;html=1;align=center;dashed=1;" vertex="1" parent="1">
          <mxGeometry x="1937.5" y="340" width="72" height="35" as="geometry" />
        </mxCell>
        <mxCell id="2SUrX7hE4mHxBvQzwb3O-242" value="" style="endArrow=none;html=1;rounded=0;entryX=0.5;entryY=1;entryDx=0;entryDy=0;exitX=0.5;exitY=0;exitDx=0;exitDy=0;" edge="1" parent="1" source="2SUrX7hE4mHxBvQzwb3O-4" target="2SUrX7hE4mHxBvQzwb3O-241">
          <mxGeometry relative="1" as="geometry">
            <mxPoint x="1930" y="440" as="sourcePoint" />
            <mxPoint x="2090" y="440" as="targetPoint" />
          </mxGeometry>
        </mxCell>
        <mxCell id="2SUrX7hE4mHxBvQzwb3O-244" value="" style="endArrow=none;html=1;rounded=0;exitX=0.5;exitY=1;exitDx=0;exitDy=0;entryX=0.5;entryY=0;entryDx=0;entryDy=0;" edge="1" parent="1" source="2SUrX7hE4mHxBvQzwb3O-4" target="2SUrX7hE4mHxBvQzwb3O-246">
          <mxGeometry relative="1" as="geometry">
            <mxPoint x="1880" y="450" as="sourcePoint" />
            <mxPoint x="1934.5" y="530" as="targetPoint" />
          </mxGeometry>
        </mxCell>
        <mxCell id="2SUrX7hE4mHxBvQzwb3O-246" value="medioPago" style="ellipse;shape=doubleEllipse;margin=3;whiteSpace=wrap;html=1;align=center;" vertex="1" parent="1">
          <mxGeometry x="1891" y="529" width="91" height="40" as="geometry" />
        </mxCell>
        <mxCell id="2SUrX7hE4mHxBvQzwb3O-247" value="" style="endArrow=none;html=1;rounded=0;exitX=0.5;exitY=0;exitDx=0;exitDy=0;entryX=0.5;entryY=1;entryDx=0;entryDy=0;" edge="1" parent="1" source="2SUrX7hE4mHxBvQzwb3O-55" target="2SUrX7hE4mHxBvQzwb3O-6">
          <mxGeometry relative="1" as="geometry">
            <mxPoint x="1930" y="240" as="sourcePoint" />
            <mxPoint x="1929" y="150" as="targetPoint" />
          </mxGeometry>
        </mxCell>
        <mxCell id="2SUrX7hE4mHxBvQzwb3O-250" value="" style="endArrow=none;html=1;rounded=0;exitX=0.5;exitY=0;exitDx=0;exitDy=0;" edge="1" parent="1" source="2SUrX7hE4mHxBvQzwb3O-4" target="2SUrX7hE4mHxBvQzwb3O-55">
          <mxGeometry relative="1" as="geometry">
            <mxPoint x="1929" y="440" as="sourcePoint" />
            <mxPoint x="1929" y="150" as="targetPoint" />
          </mxGeometry>
        </mxCell>
        <mxCell id="2SUrX7hE4mHxBvQzwb3O-55" value="Tiene" style="shape=rhombus;perimeter=rhombusPerimeter;whiteSpace=wrap;html=1;align=center;" vertex="1" parent="1">
          <mxGeometry x="1869" y="220" width="120" height="60" as="geometry" />
        </mxCell>
        <mxCell id="2SUrX7hE4mHxBvQzwb3O-251" value="n" style="text;html=1;align=center;verticalAlign=middle;whiteSpace=wrap;rounded=0;" vertex="1" parent="1">
          <mxGeometry x="1919" y="280" width="60" height="30" as="geometry" />
        </mxCell>
        <mxCell id="2SUrX7hE4mHxBvQzwb3O-252" value="1" style="text;html=1;align=center;verticalAlign=middle;whiteSpace=wrap;rounded=0;" vertex="1" parent="1">
          <mxGeometry x="1919" y="190" width="60" height="30" as="geometry" />
        </mxCell>
        <mxCell id="2SUrX7hE4mHxBvQzwb3O-253" value="cantidadesDisponibles" style="ellipse;shape=doubleEllipse;margin=3;whiteSpace=wrap;html=1;align=center;" vertex="1" parent="1">
          <mxGeometry x="1987.5" y="-22" width="139" height="50" as="geometry" />
        </mxCell>
        <mxCell id="2SUrX7hE4mHxBvQzwb3O-254" value="" style="endArrow=none;html=1;rounded=0;exitX=1;exitY=0;exitDx=0;exitDy=0;entryX=0.5;entryY=1;entryDx=0;entryDy=0;" edge="1" parent="1" source="2SUrX7hE4mHxBvQzwb3O-6" target="2SUrX7hE4mHxBvQzwb3O-253">
          <mxGeometry relative="1" as="geometry">
            <mxPoint x="1970" y="13" as="sourcePoint" />
            <mxPoint x="2130" y="13" as="targetPoint" />
          </mxGeometry>
        </mxCell>
        <mxCell id="2SUrX7hE4mHxBvQzwb3O-255" value="" style="endArrow=none;html=1;rounded=0;exitX=0.75;exitY=1;exitDx=0;exitDy=0;entryX=0;entryY=0;entryDx=0;entryDy=0;" edge="1" parent="1" source="2SUrX7hE4mHxBvQzwb3O-6" target="2SUrX7hE4mHxBvQzwb3O-178">
          <mxGeometry relative="1" as="geometry">
            <mxPoint x="1920" y="133" as="sourcePoint" />
            <mxPoint x="2080" y="133" as="targetPoint" />
          </mxGeometry>
        </mxCell>
        <mxCell id="2SUrX7hE4mHxBvQzwb3O-256" style="edgeStyle=orthogonalEdgeStyle;rounded=0;orthogonalLoop=1;jettySize=auto;html=1;exitX=0.5;exitY=1;exitDx=0;exitDy=0;" edge="1" parent="1" source="2SUrX7hE4mHxBvQzwb3O-198" target="2SUrX7hE4mHxBvQzwb3O-198">
          <mxGeometry relative="1" as="geometry" />
        </mxCell>
        <mxCell id="2SUrX7hE4mHxBvQzwb3O-257" value="" style="endArrow=none;html=1;rounded=0;entryX=0;entryY=0.5;entryDx=0;entryDy=0;exitX=1;exitY=0.5;exitDx=0;exitDy=0;" edge="1" parent="1" source="2SUrX7hE4mHxBvQzwb3O-197" target="2SUrX7hE4mHxBvQzwb3O-182">
          <mxGeometry relative="1" as="geometry">
            <mxPoint x="1670" y="113" as="sourcePoint" />
            <mxPoint x="1830" y="113" as="targetPoint" />
          </mxGeometry>
        </mxCell>
      </root>
    </mxGraphModel>
  </diagram>
</mxfile>
